<svg width="623.5547729492188px" height="139.04000549316407px" xmlns="http://www.w3.org/2000/svg" viewBox="-61.777386474609386 5.479997253417963 623.5547729492188 139.04000549316407" style="background: rgba(0, 0, 0, 0);" preserveAspectRatio="xMidYMid"><defs><linearGradient id="editing-gradient-gradient" x1="0.4304134495199672" x2="0.5695865504800328" y1="0.0048659656292148745" y2="0.9951340343707851" gradientUnits="objectBoundingBox"><stop offset="0" stop-color="#f0f"></stop><stop offset="1" stop-color="#0ff"></stop></linearGradient></defs><g><g transform="translate(28.315752267837524, 103.7700023651123)"><path d="M83.72-31.29L83.72-31.29L83.72-31.29Q83.72-27.72 80.15-23.45L80.15-23.45L80.15-23.45Q76.58-19.18 69.34-16.52L69.34-16.52L69.34-16.52Q62.09-13.86 55.27-13.86L55.27-13.86L55.27-13.86Q48.44-13.86 44.45-15.61L44.45-15.61L44.45-15.61Q35.63-2.66 32.97 0L32.97 0L32.97 0Q25.41 7.56 14.91 7.56L14.91 7.56L14.91 7.56Q8.96 7.56 5.99 4.80L5.99 4.80L5.99 4.80Q3.01 2.03 3.01-2.38L3.01-2.38L3.01-2.38Q3.01-8.47 7.91-13.86L7.91-13.86L7.91-13.86Q13.30-19.81 21.49-19.81L21.49-19.81L21.49-19.81Q24.85-19.81 27.16-18.27L27.16-18.27L27.16-18.27Q29.47-16.73 29.47-13.58L29.47-13.58L29.47-13.58Q29.47-11.48 27.09-8.54L27.09-8.54L27.09-8.54Q24.71-5.60 24.15-5.60L24.15-5.60L24.15-5.60Q24.01-5.60 24.01-5.88L24.01-5.88L24.01-5.88Q24.01-6.16 24.22-6.44L24.22-6.44L24.22-6.44Q26.46-9.73 26.46-12.50L26.46-12.50L26.46-12.50Q26.46-15.26 24.75-16.77L24.75-16.77L24.75-16.77Q23.03-18.27 20.51-18.27L20.51-18.27L20.51-18.27Q14.63-18.27 10.12-12.92L10.12-12.92L10.12-12.92Q5.60-7.56 5.60-2.10L5.60-2.10L5.60-2.10Q5.60 1.40 7.81 3.57L7.81 3.57L7.81 3.57Q10.01 5.74 14.63 5.74L14.63 5.74L14.63 5.74Q23.24 5.74 29.40-0.07L29.40-0.07L29.40-0.07Q32.97-3.43 36.61-9.87L36.61-9.87L42.70-20.86L42.70-20.86Q47.18-28.07 53.13-42.28L53.13-42.28L53.13-42.28Q52.50-42.28 51.87-42.28L51.87-42.28L51.87-42.28Q42.42-42.28 32.90-40.22L32.90-40.22L32.90-40.22Q23.38-38.15 18.48-34.30L18.48-34.30L18.48-34.30Q16.38-32.69 16.38-31.15L16.38-31.15L16.38-31.15Q16.38-29.61 18.03-28.67L18.03-28.67L18.03-28.67Q19.67-27.72 21.91-27.72L21.91-27.72L21.91-27.72Q24.15-27.72 27.48-28.60L27.48-28.60L27.48-28.60Q30.80-29.47 32.48-30.94L32.48-30.94L32.48-30.94Q33.18-31.50 33.46-31.50L33.46-31.50L33.46-31.50Q34.02-31.50 33.67-30.94L33.67-30.94L33.67-30.94Q31.15-28.00 26.04-26.53L26.04-26.53L26.04-26.53Q22.89-25.62 19.81-25.62L19.81-25.62L19.81-25.62Q16.73-25.62 14.77-26.99L14.77-26.99L14.77-26.99Q12.81-28.35 12.81-30.70L12.81-30.70L12.81-30.70Q12.81-33.04 15.33-35.42L15.33-35.42L15.33-35.42Q20.09-40.04 32.34-42.28L32.34-42.28L32.34-42.28Q41.02-43.82 52.29-43.82L52.29-43.82L52.29-43.82Q53.20-43.82 54.18-43.82L54.18-43.82L54.18-43.82Q55.72-45.15 56.98-45.15L56.98-45.15L56.98-45.15Q58.24-45.15 58.24-44.17L58.24-44.17L58.24-44.17Q58.24-43.96 58.17-43.68L58.17-43.68L58.17-43.68Q69.02-42.91 75.74-40.04L75.74-40.04L75.74-40.04Q83.72-36.68 83.72-31.29ZM80.43-31.99L80.43-31.99L80.43-31.99Q80.43-36.40 73.29-39.20L73.29-39.20L73.29-39.20Q67.06-41.65 57.68-42.14L57.68-42.14L55.44-35.14L55.44-35.14Q52.78-28.56 45.22-16.80L45.22-16.80L45.22-16.80Q45.92-16.45 47.60-16.03L47.60-16.03L47.60-16.03Q50.40-15.54 51.94-15.54L51.94-15.54L51.94-15.54Q57.26-15.54 64.19-17.75L64.19-17.75L64.19-17.75Q71.12-19.95 75.78-24.19L75.78-24.19L75.78-24.19Q80.43-28.42 80.43-31.99ZM90.58-0.28L90.58-0.28L90.58-0.28Q86.45-0.28 86.45-5.11L86.45-5.11L86.45-5.11Q86.45-7.84 88.38-11.17L88.38-11.17L88.38-11.17Q90.30-14.49 93.10-18.97L93.10-18.97L93.10-18.97Q84.14-14.49 76.86-5.74L76.86-5.74L76.86-5.74Q72.80 0.35 72.10 0.35L72.10 0.35L72.10 0.35Q70.07 0.35 70.07-0.84L70.07-0.84L70.07-0.84Q70.07-1.47 70.91-3.08L70.91-3.08L70.91-3.08Q77.70-15.19 81.20-20.79L81.20-20.79L81.20-20.79Q89.53-34.16 92.96-35.28L92.96-35.28L92.96-35.28Q93.10-35.35 93.24-35.35L93.24-35.35L93.24-35.35Q94.15-35.35 94.50-33.88L94.50-33.88L94.50-33.88Q94.29-32.41 87.22-23.24L87.22-23.24L87.22-23.24Q79.87-13.93 78.89-11.06L78.89-11.06L78.89-11.06Q81.48-12.95 87.92-17.43L87.92-17.43L87.92-17.43Q94.85-22.26 97.09-22.26L97.09-22.26L97.09-22.26Q99.33-22.26 99.33-20.51L99.33-20.51L99.33-20.51Q99.33-20.23 99.30-20.13L99.30-20.13L99.30-20.13Q99.26-20.02 94.43-13.51L94.43-13.51L94.43-13.51Q89.60-7.00 89.60-3.92L89.60-3.92L89.60-3.92Q89.60-2.31 90.79-2.31L90.79-2.31L90.79-2.31Q94.57-2.45 102.13-11.41L102.13-11.41L102.13-11.41Q102.76-12.04 103.08-12.04L103.08-12.04L103.08-12.04Q103.39-12.04 103.39-11.62L103.39-11.62L103.39-11.62Q103.39-10.22 96.46-4.06L96.46-4.06L96.46-4.06Q92.12-0.28 90.58-0.28ZM123.55-20.93L123.55-20.93L124.53-21.14L124.53-21.14Q125.30-21.14 126.00-20.51L126.00-20.51L126.00-20.51Q126.70-19.88 126.70-19.53L126.70-19.53L126.70-19.53Q126.70-19.18 122.36-12.78L122.36-12.78L122.36-12.78Q118.02-6.37 118.02-3.85L118.02-3.85L118.02-3.85Q118.02-3.64 118.09-3.43L118.09-3.43L118.09-3.43Q118.44-1.82 119.63-1.82L119.63-1.82L119.63-1.82Q123.27-1.82 132.93-13.86L132.93-13.86L132.93-13.86Q133.14-14.14 133.42-14.14L133.42-14.14L133.42-14.14Q133.70-14.14 133.70-13.62L133.70-13.62L133.70-13.62Q133.70-13.09 133.07-12.25L133.07-12.25L133.07-12.25Q124.11-0.28 119.42-0.28L119.42-0.28L119.42-0.28Q118.79-0.28 118.23-0.49L118.23-0.49L118.23-0.49Q115.15-1.68 115.15-5.11L115.15-5.11L115.15-5.11Q115.15-6.30 115.43-7.49L115.43-7.49L111.09-3.29L111.09-3.29Q106.96 0.35 105.11 0.35L105.11 0.35L105.11 0.35Q103.25 0.35 101.57-0.84L101.57-0.84L101.57-0.84Q99.68-2.24 99.68-4.55L99.68-4.55L99.68-4.55Q99.68-9.66 106.82-16.77L106.82-16.77L106.82-16.77Q113.96-23.87 119.91-23.87L119.91-23.87L119.91-23.87Q122.22-23.87 122.99-22.26L122.99-22.26L122.99-22.26Q123.20-21.70 123.34-21.32L123.34-21.32L123.34-21.32Q123.48-20.93 123.55-20.93ZM102.62-3.71L102.62-3.71L102.62-3.71Q102.62-1.19 104.37-1.19L104.37-1.19L104.37-1.19Q108.43-1.19 115.43-10.08L115.43-10.08L122.85-20.30L122.85-20.30Q122.29-21.28 121.03-21.28L121.03-21.28L121.03-21.28Q116.76-21.28 109.69-14.67L109.69-14.67L109.69-14.67Q102.62-8.05 102.62-3.71ZM162.61-0.84L162.61-0.84L162.61-0.84Q157.85-0.84 157.85-5.25L157.85-5.25L157.85-5.25Q157.85-7.77 160.09-12.15L160.09-12.15L160.09-12.15Q162.33-16.52 164.78-19.53L164.78-19.53L164.78-19.53Q160.44-17.43 154.77-11.94L154.77-11.94L154.77-11.94Q149.10-6.44 146.86-0.42L146.86-0.42L146.86-0.42Q146.51 0.14 145.67 0.14L145.67 0.14L145.67 0.14Q143.99 0.14 143.99-1.75L143.99-1.75L143.99-1.75Q144.69-5.60 147.14-10.57L147.14-10.57L147.14-10.57Q147.91-12.18 151.69-19.95L151.69-19.95L151.69-19.95Q146.23-16.38 142.42-12.29L142.42-12.29L142.42-12.29Q138.60-8.19 135.35-4.06L135.35-4.06L135.35-4.06Q132.09 0.07 131.67 0.07L131.67 0.07L131.67 0.07Q130.76 0.07 130.10-0.77L130.10-0.77L130.10-0.77Q129.43-1.61 129.43-2.45L129.43-2.45L129.43-2.45Q129.43-3.71 133.07-11.69L133.07-11.69L128.87-7.28L128.87-7.28Q127.33-5.74 126.95-5.74L126.95-5.74L126.95-5.74Q126.56-5.74 126.56-6.20L126.56-6.20L126.56-6.20Q126.56-6.65 127.12-7.21L127.12-7.21L127.12-7.21Q129.71-9.80 131.74-12.39L131.74-12.39L131.74-12.39Q133.77-14.98 138.46-21.63L138.46-21.63L138.46-21.63Q139.23-22.68 140.63-22.68L140.63-22.68L140.63-22.68Q142.03-22.68 142.03-21.35L142.03-21.35L142.03-21.35Q142.03-20.86 138.32-14.53L138.32-14.53L138.32-14.53Q134.61-8.19 134.19-6.58L134.19-6.58L134.19-6.58Q137.06-9.73 142.80-15.05L142.80-15.05L142.80-15.05Q151.41-23.03 154.14-23.03L154.14-23.03L154.14-23.03Q154.98-23.03 155.68-22.54L155.68-22.54L155.68-22.54Q156.38-22.05 156.38-21.46L156.38-21.46L156.38-21.46Q156.38-20.86 153.65-16.17L153.65-16.17L153.65-16.17Q150.99-11.34 150.71-10.43L150.71-10.43L150.71-10.43Q158.48-16.94 158.48-17.01L158.48-17.01L158.48-17.01Q165.06-22.12 167.93-22.12L167.93-22.12L167.93-22.12Q168.77-22.12 169.51-21.60L169.51-21.60L169.51-21.60Q170.24-21.07 170.24-20.37L170.24-20.37L170.24-20.37Q170.24-20.23 165.69-14.46L165.69-14.46L165.69-14.46Q161.14-8.68 160.58-4.97L160.58-4.97L160.58-4.97Q160.44-3.71 161.07-3.08L161.07-3.08L161.07-3.08Q161.70-2.45 163.35-2.45L163.35-2.45L163.35-2.45Q164.99-2.45 168.18-4.73L168.18-4.73L168.18-4.73Q171.36-7.00 174.65-10.85L174.65-10.85L174.65-10.85Q175.91-12.25 176.37-12.25L176.37-12.25L176.37-12.25Q176.82-12.25 176.82-11.90L176.82-11.90L176.82-11.90Q176.82-11.41 176.19-10.78L176.19-10.78L176.19-10.78Q172.76-6.65 168.81-3.75L168.81-3.75L168.81-3.75Q164.85-0.84 162.61-0.84ZM216.79-2.87L216.79-2.87L216.79-2.87Q215.11-0.28 215.11 0.49L215.11 0.49L215.11 0.49Q215.11 1.26 215.74 1.61L215.74 1.61L215.74 1.61Q215.74 1.68 214.48 2.66L214.48 2.66L214.48 2.66Q213.36 3.22 211.96 3.22L211.96 3.22L211.96 3.22Q210.56 3.22 209.93 2.91L209.93 2.91L209.93 2.91Q209.30 2.59 209.51 1.89L209.51 1.89L209.51 1.89Q210.49-1.26 216.86-10.75L216.86-10.75L216.86-10.75Q223.23-20.23 225.40-24.15L225.40-24.15L225.40-24.15Q230.09-32.62 230.09-37.66L230.09-37.66L230.09-37.66Q230.09-39.76 229.39-41.23L229.39-41.23L229.39-41.23Q227.99-44.10 222.74-44.10L222.74-44.10L222.74-44.10Q214.55-44.10 205.80-37.03L205.80-37.03L205.80-37.03Q198.80-31.36 195.09-25.03L195.09-25.03L195.09-25.03Q191.38-18.69 191.38-13.72L191.38-13.72L191.38-13.72Q191.38-6.58 197.68-6.44L197.68-6.44L197.68-6.44Q197.96-6.44 198.24-6.44L198.24-6.44L198.24-6.44Q206.29-6.44 210.70-12.25L210.70-12.25L210.70-12.25Q212.38-14.56 212.38-16.17L212.38-16.17L212.38-16.17Q212.38-17.78 211.68-18.20L211.68-18.20L211.68-18.20Q211.61-18.27 211.61-18.48L211.61-18.48L211.61-18.48Q211.61-18.69 212.03-18.69L212.03-18.69L212.03-18.69Q213.85-18.69 213.85-16.31L213.85-16.31L213.85-16.31Q213.85-14.84 212.42-12.32L212.42-12.32L212.42-12.32Q210.98-9.80 207.34-7.56L207.34-7.56L207.34-7.56Q203.70-5.32 198.87-5.32L198.87-5.32L198.87-5.32Q194.04-5.32 191.17-8.33L191.17-8.33L191.17-8.33Q188.30-11.34 188.30-16.24L188.30-16.24L188.30-16.24Q188.30-27.30 202.72-38.85L202.72-38.85L202.72-38.85Q206.43-41.79 212.49-43.68L212.49-43.68L212.49-43.68Q218.54-45.57 224.07-45.57L224.07-45.57L224.07-45.57Q229.60-45.57 231.60-43.65L231.60-43.65L231.60-43.65Q233.59-41.72 233.59-38.50L233.59-38.50L233.59-38.50Q233.59-33.60 229.60-25.27L229.60-25.27L229.60-25.27Q228.34-22.68 223.93-15.82L223.93-15.82L229.32-22.68L229.32-22.68Q233.24-27.79 242.90-37.24L242.90-37.24L242.90-37.24Q245.00-39.27 247.56-40.64L247.56-40.64L247.56-40.64Q250.11-42.00 251.93-42.00L251.93-42.00L251.93-42.00Q254.45-42.00 254.45-39.34L254.45-39.34L254.45-39.34Q254.45-37.03 252.25-32.38L252.25-32.38L252.25-32.38Q250.04-27.72 247.80-23.56L247.80-23.56L247.80-23.56Q245.56-19.39 245.07-18.10L245.07-18.10L245.07-18.10Q244.58-16.80 244.37-16.03L244.37-16.03L244.37-16.03Q244.16-15.26 244.09-15.19L244.09-15.19L244.09-15.19Q244.30-15.54 248.71-20.55L248.71-20.55L248.71-20.55Q253.12-25.55 261.73-33.04L261.73-33.04L272.93-42.28L272.93-42.28Q274.26-43.40 275.31-43.40L275.31-43.40L275.31-43.40Q276.36-43.40 277.03-41.65L277.03-41.65L277.03-41.65Q277.69-39.90 277.69-38.82L277.69-38.82L277.69-38.82Q277.69-37.73 274.33-34.30L274.33-34.30L274.33-34.30Q265.58-25.34 259.49-14.70L259.49-14.70L259.49-14.70Q253.40-4.06 253.40 0.49L253.40 0.49L253.40 0.49Q253.40 1.68 253.82 2.14L253.82 2.14L253.82 2.14Q254.24 2.59 255.15 2.42L255.15 2.42L255.15 2.42Q256.06 2.24 258.97 0.98L258.97 0.98L258.97 0.98Q261.87-0.28 262.78-0.49L262.78-0.49L262.78-0.49Q263.13-0.35 263.13-0.14L263.13-0.14L263.13-0.14Q263.13 0.91 259.46 2.80L259.46 2.80L259.46 2.80Q255.78 4.69 253.93 4.69L253.93 4.69L253.93 4.69Q252.07 4.69 251.65 4.06L251.65 4.06L251.65 4.06Q250.39 2.24 250.39-0.35L250.39-0.35L250.39-0.35Q250.39-6.37 256.83-17.64L256.83-17.64L256.83-17.64Q260.96-24.71 269.57-36.68L269.57-36.68L269.57-36.68Q262.85-31.22 251.37-19.95L251.37-19.95L251.37-19.95Q239.89-8.68 236.32-2.31L236.32-2.31L236.32-2.31Q234.50 0.98 231.91 0.98L231.91 0.98L231.91 0.98Q230.72 0.98 230.72 0.14L230.72 0.14L230.72 0.14Q230.72-0.14 232.16-2.38L232.16-2.38L232.16-2.38Q233.59-4.62 238.49-12.88L238.49-12.88L238.49-12.88Q250.53-33.81 250.53-38.08L250.53-38.08L250.53-38.08Q250.53-39.20 249.76-39.20L249.76-39.20L249.76-39.20Q248.64-39.20 246.47-37.31L246.47-37.31L246.47-37.31Q238.70-30.80 229.95-20.30L229.95-20.30L229.95-20.30Q221.20-9.80 216.79-2.87ZM281.89-28.56L281.89-28.56Q282.94-28.56 283.89-27.90L283.89-27.90L283.89-27.90Q284.83-27.23 284.83-26.32L284.83-26.32L284.83-26.32Q284.83-25.41 283.96-24.75L283.96-24.75L283.96-24.75Q283.08-24.08 282.03-24.08L282.03-24.08L282.03-24.08Q280.98-24.08 280.11-24.85L280.11-24.85L280.11-24.85Q279.23-25.62 279.23-26.60L279.23-26.60L279.23-26.60Q279.23-28.56 281.89-28.56L281.89-28.56ZM269.22 0.77L269.22 0.77L269.22 0.77Q265.65 0.77 265.65-3.85L265.65-3.85L265.65-3.85Q265.65-7.63 269.78-14.32L269.78-14.32L269.78-14.32Q273.91-21.00 276.43-21.07L276.43-21.07L276.43-21.07Q277.13-21.07 278.01-20.51L278.01-20.51L278.01-20.51Q278.88-19.95 278.88-19.39L278.88-19.39L278.88-19.39Q278.53-18.90 278.04-18.31L278.04-18.31L278.04-18.31Q277.55-17.71 276.99-17.01L276.99-17.01L276.99-17.01Q276.43-16.31 275.45-15.02L275.45-15.02L275.45-15.02Q274.47-13.72 273.56-12.53L273.56-12.53L273.56-12.53Q268.31-5.74 268.31-3.19L268.31-3.19L268.31-3.19Q268.31-0.63 270.06-0.63L270.06-0.63L270.06-0.63Q271.53-0.63 274.05-2.24L274.05-2.24L274.05-2.24Q279.93-5.88 283.36-10.22L283.36-10.22L283.36-10.22Q284.62-11.83 285.08-11.83L285.08-11.83L285.08-11.83Q285.53-11.83 285.53-11.27L285.53-11.27L285.53-11.27Q285.53-10.71 283.92-9.03L283.92-9.03L283.92-9.03Q282.31-7.35 281.37-6.37L281.37-6.37L281.37-6.37Q280.42-5.39 280.07-5.08L280.07-5.08L280.07-5.08Q279.72-4.76 278.78-3.89L278.78-3.89L278.78-3.89Q277.83-3.01 277.34-2.66L277.34-2.66L277.34-2.66Q276.85-2.31 275.94-1.61L275.94-1.61L275.94-1.61Q275.03-0.91 274.33-0.60L274.33-0.60L274.33-0.60Q273.63-0.28 272.72 0.14L272.72 0.14L272.72 0.14Q271.25 0.77 269.22 0.77ZM293.79-22.12L293.79-22.12L293.79-22.12Q295.68-22.12 295.68-20.65L295.68-20.65L295.68-20.65Q295.68-20.23 295.47-19.81L295.47-19.81L295.47-19.81Q289.17-11.06 287.91-6.58L287.91-6.58L287.91-6.58Q304.22-22.89 307.72-22.89L307.72-22.89L307.72-22.89Q308.07-22.96 308.35-22.96L308.35-22.96L308.35-22.96Q310.31-22.96 310.31-21.21L310.31-21.21L310.31-21.21Q310.31-20.86 310.17-20.51L310.17-20.51L310.17-20.51Q310.03-20.16 307.37-16.73L307.37-16.73L307.37-16.73Q304.29-13.09 302.16-9.73L302.16-9.73L302.16-9.73Q300.02-6.37 300.02-4.13L300.02-4.13L300.02-4.13Q300.02-1.89 301.00-1.89L301.00-1.89L301.00-1.89Q304.08-1.89 311.71-10.36L311.71-10.36L311.71-10.36Q311.85-10.50 312.20-10.99L312.20-10.99L312.20-10.99Q313.25-12.25 313.46-12.25L313.46-12.25L313.46-12.25Q313.67-12.25 313.67-11.55L313.67-11.55L313.67-11.55Q313.67-10.85 312.69-9.73L312.69-9.73L312.69-9.73Q304.01 0.14 300.37 0.14L300.37 0.14L300.37 0.14Q296.94 0.14 296.94-3.64L296.94-3.64L296.94-3.64Q296.94-7.42 299.74-12.32L299.74-12.32L304.22-19.60L304.22-19.60Q299.46-16.10 295.75-11.94L295.75-11.94L295.75-11.94Q292.04-7.77 289.00-3.85L289.00-3.85L289.00-3.85Q285.95 0.07 285.46 0.07L285.46 0.07L285.46 0.07Q284.41 0.07 283.82-0.81L283.82-0.81L283.82-0.81Q283.22-1.68 283.22-2.98L283.22-2.98L283.22-2.98Q283.22-4.27 284.13-6.44L284.13-6.44L284.13-6.44Q285.04-8.61 286.44-11.69L286.44-11.69L282.24-7.28L282.24-7.28Q280.70-5.74 280.32-5.74L280.32-5.74L280.32-5.74Q279.93-5.74 279.93-6.20L279.93-6.20L279.93-6.20Q279.93-6.65 280.49-7.21L280.49-7.21L280.49-7.21Q283.08-9.80 284.97-12.18L284.97-12.18L284.97-12.18Q286.79-14.56 292.46-21.28L292.46-21.28L292.46-21.28Q293.09-22.12 293.79-22.12ZM327.32-0.28L327.32-0.28L327.32-0.28Q323.19-0.28 323.19-5.11L323.19-5.11L323.19-5.11Q323.19-7.84 325.12-11.17L325.12-11.17L325.12-11.17Q327.04-14.49 329.84-18.97L329.84-18.97L329.84-18.97Q320.88-14.49 313.60-5.74L313.60-5.74L313.60-5.74Q309.54 0.35 308.84 0.35L308.84 0.35L308.84 0.35Q306.81 0.35 306.81-0.84L306.81-0.84L306.81-0.84Q306.81-1.47 307.65-3.08L307.65-3.08L307.65-3.08Q314.44-15.19 317.94-20.79L317.94-20.79L317.94-20.79Q326.27-34.16 329.70-35.28L329.70-35.28L329.70-35.28Q329.84-35.35 329.98-35.35L329.98-35.35L329.98-35.35Q330.89-35.35 331.24-33.88L331.24-33.88L331.24-33.88Q331.03-32.41 323.96-23.24L323.96-23.24L323.96-23.24Q316.61-13.93 315.63-11.06L315.63-11.06L315.63-11.06Q318.22-12.95 324.66-17.43L324.66-17.43L324.66-17.43Q331.59-22.26 333.83-22.26L333.83-22.26L333.83-22.26Q336.07-22.26 336.07-20.51L336.07-20.51L336.07-20.51Q336.07-20.23 336.04-20.13L336.04-20.13L336.04-20.13Q336-20.02 331.17-13.51L331.17-13.51L331.17-13.51Q326.34-7.00 326.34-3.92L326.34-3.92L326.34-3.92Q326.34-2.31 327.53-2.31L327.53-2.31L327.53-2.31Q331.31-2.45 338.87-11.41L338.87-11.41L338.87-11.41Q339.50-12.04 339.81-12.04L339.81-12.04L339.81-12.04Q340.13-12.04 340.13-11.62L340.13-11.62L340.13-11.62Q340.13-10.22 333.20-4.06L333.20-4.06L333.20-4.06Q328.86-0.28 327.32-0.28ZM352.87-4.69L352.87-4.69L352.87-4.69Q352.87-12.25 357.35-19.67L357.35-19.67L357.35-19.67Q352.17-22.96 352.17-29.40L352.17-29.40L352.17-29.40Q352.17-37.17 359.03-43.19L359.03-43.19L359.03-43.19Q366.73-49.98 378.91-49.98L378.91-49.98L378.91-49.98Q384.51-49.98 390.95-48.37L390.95-48.37L390.95-48.37Q392.42-48.02 403.48-42.95L403.48-42.95L403.48-42.95Q414.54-37.87 419.37-37.87L419.37-37.87L419.37-37.87Q422.59-37.87 424.20-39.69L424.20-39.69L424.20-39.69Q425.04-40.60 425.04-41.65L425.04-41.65L425.04-41.65Q425.04-42.70 424.13-43.54L424.13-43.54L424.13-43.54Q423.64-44.24 423.64-44.45L423.64-44.45L423.64-44.45Q423.64-44.66 424.03-44.66L424.03-44.66L424.03-44.66Q424.41-44.66 425.36-43.44L425.36-43.44L425.36-43.44Q426.30-42.21 426.30-40.57L426.30-40.57L426.30-40.57Q426.30-38.92 424.10-37.42L424.10-37.42L424.10-37.42Q421.89-35.91 418.53-35.91L418.53-35.91L418.53-35.91Q413.28-35.91 402.22-40.99L402.22-40.99L402.22-40.99Q391.16-46.06 388.33-46.62L388.33-46.62L388.33-46.62Q385.49-47.18 381.85-47.18L381.85-47.18L381.85-47.18Q367.36-47.18 359.03-37.80L359.03-37.80L359.03-37.80Q358.05-36.75 356.72-33.57L356.72-33.57L356.72-33.57Q355.39-30.38 355.39-27.44L355.39-27.44L355.39-27.44Q355.39-23.38 358.26-21.14L358.26-21.14L358.26-21.14Q361.90-26.46 366.87-29.61L366.87-29.61L366.87-29.61Q371.84-32.76 376.95-32.76L376.95-32.76L376.95-32.76Q383.25-32.76 383.25-27.86L383.25-27.86L383.25-27.86Q383.25-21.98 376.36-15.09L376.36-15.09L376.36-15.09Q369.46-8.19 363.58-8.19L363.58-8.19L363.58-8.19Q359.80-8.19 359.80-11.41L359.80-11.41L359.80-11.41Q359.80-12.53 360.40-13.37L360.40-13.37L360.40-13.37Q360.99-14.21 361.83-14.00L361.83-14.00L361.69-12.39L361.69-12.39Q361.69-11.34 364.91-11.34L364.91-11.34L364.91-11.34Q369.67-11.34 374.96-16.24L374.96-16.24L374.96-16.24Q380.24-21.14 381.36-25.83L381.36-25.83L381.36-25.83Q381.64-26.88 381.64-27.72L381.64-27.72L381.64-27.72Q381.64-30.87 377.62-30.87L377.62-30.87L377.62-30.87Q373.59-30.87 369.29-27.79L369.29-27.79L369.29-27.79Q364.98-24.71 361.20-19.67L361.20-19.67L361.20-19.67Q361.48-19.53 363.37-19.11L363.37-19.11L367.57-18.97L367.57-18.97Q370.65-18.83 370.65-18.27L370.65-18.27L370.65-18.27Q370.65-17.29 367.71-17.29L367.71-17.29L367.71-17.29Q367.50-17.29 367.29-17.29L367.29-17.29L367.29-17.29Q363.02-17.29 360.29-18.34L360.29-18.34L360.29-18.34Q354.90-10.08 354.90-3.15L354.90-3.15L354.90-3.15Q354.90 5.81 361.83 5.81L361.83 5.81L361.83 5.81Q369.67 5.81 378.14-5.11L378.14-5.11L391.86-25.55L391.86-25.55Q399.56-36.75 405.23-37.03L405.23-37.03L407.89-36.40L407.89-36.40Q409.15-35.70 409.15-34.30L409.15-34.30L409.15-34.30Q409.15-32.90 408.45-32.90L408.45-32.90L406.21-33.25L406.21-33.25Q401.38-33.25 393.82-22.82L393.82-22.82L379.89-3.36L379.89-3.36Q370.93 7.07 362.74 7.07L362.74 7.07L362.74 7.07Q357.14 7.07 355.01 4.06L355.01 4.06L355.01 4.06Q352.87 1.05 352.87-4.69ZM411.46 0.35L411.46 0.35L411.46 0.35Q406.21 0.35 406.21-5.46L406.21-5.46L406.21-5.46Q406.21-8.40 407.75-11.90L407.75-11.90L407.75-11.90Q409.29-15.40 411.11-17.78L411.11-17.78L411.11-17.78Q410.76-17.71 410.20-17.71L410.20-17.71L410.20-17.71Q408.52-17.71 407.40-20.09L407.40-20.09L402.22-13.37L402.22-13.37Q397.88-7.98 397.18-7.98L397.18-7.98L397.18-7.98Q396.83-7.98 396.83-8.26L396.83-8.26L396.83-8.26Q396.83-8.96 398.02-10.29L398.02-10.29L398.02-10.29Q404.11-17.36 406.63-22.26L406.63-22.26L406.63-22.26Q408.24-28.35 410.69-28.35L410.69-28.35L410.69-28.35Q412.30-28.35 412.30-26.95L412.30-26.95L412.30-26.95Q412.30-25.55 410.55-23.38L410.55-23.38L408.87-21.14L408.87-21.14Q408.87-19.67 411.04-19.67L411.04-19.67L411.04-19.67Q412.30-19.67 413.84-20.58L413.84-20.58L415.66-21.70L415.66-21.70Q415.80-21.77 416.36-21.77L416.36-21.77L416.36-21.77Q416.92-21.77 417.55-21.07L417.55-21.07L417.55-21.07Q418.18-20.37 417.97-19.81L417.97-19.81L413.14-13.72L413.14-13.72Q408.66-7.98 408.66-4.66L408.66-4.66L408.66-4.66Q408.66-1.33 411.74-1.33L411.74-1.33L411.74-1.33Q414.96-1.33 419.65-4.76L419.65-4.76L419.65-4.76Q422.45-6.79 424.76-9.31L424.76-9.31L424.76-9.31Q426.93-11.83 427.14-11.83L427.14-11.83L427.14-11.83Q427.63-11.83 427.63-11.31L427.63-11.31L427.63-11.31Q427.63-10.78 427-10.08L427-10.08L424.76-7.56L424.76-7.56Q422.87-5.60 420.56-3.78L420.56-3.78L420.56-3.78Q415.03 0.35 411.46 0.35ZM439.95-28.56L439.95-28.56Q441-28.56 441.94-27.90L441.94-27.90L441.94-27.90Q442.89-27.23 442.89-26.32L442.89-26.32L442.89-26.32Q442.89-25.41 442.01-24.75L442.01-24.75L442.01-24.75Q441.14-24.08 440.09-24.08L440.09-24.08L440.09-24.08Q439.04-24.08 438.16-24.85L438.16-24.85L438.16-24.85Q437.29-25.62 437.29-26.60L437.29-26.60L437.29-26.60Q437.29-28.56 439.95-28.56L439.95-28.56ZM427.28 0.77L427.28 0.77L427.28 0.77Q423.71 0.77 423.71-3.85L423.71-3.85L423.71-3.85Q423.71-7.63 427.84-14.32L427.84-14.32L427.84-14.32Q431.97-21.00 434.49-21.07L434.49-21.07L434.49-21.07Q435.19-21.07 436.06-20.51L436.06-20.51L436.06-20.51Q436.94-19.95 436.94-19.39L436.94-19.39L436.94-19.39Q436.59-18.90 436.10-18.31L436.10-18.31L436.10-18.31Q435.61-17.71 435.05-17.01L435.05-17.01L435.05-17.01Q434.49-16.31 433.51-15.02L433.51-15.02L433.51-15.02Q432.53-13.72 431.62-12.53L431.62-12.53L431.62-12.53Q426.37-5.74 426.37-3.19L426.37-3.19L426.37-3.19Q426.37-0.63 428.12-0.63L428.12-0.63L428.12-0.63Q429.59-0.63 432.11-2.24L432.11-2.24L432.11-2.24Q437.99-5.88 441.42-10.22L441.42-10.22L441.42-10.22Q442.68-11.83 443.13-11.83L443.13-11.83L443.13-11.83Q443.59-11.83 443.59-11.27L443.59-11.27L443.59-11.27Q443.59-10.71 441.98-9.03L441.98-9.03L441.98-9.03Q440.37-7.35 439.43-6.37L439.43-6.37L439.43-6.37Q438.48-5.39 438.13-5.08L438.13-5.08L438.13-5.08Q437.78-4.76 436.83-3.89L436.83-3.89L436.83-3.89Q435.89-3.01 435.40-2.66L435.40-2.66L435.40-2.66Q434.91-2.31 434-1.61L434-1.61L434-1.61Q433.09-0.91 432.39-0.60L432.39-0.60L432.39-0.60Q431.69-0.28 430.78 0.14L430.78 0.14L430.78 0.14Q429.31 0.77 427.28 0.77Z" fill="url(#editing-gradient-gradient)"></path></g></g><style>text {
  font-size: 64px;
  font-family: Arial Black;
  dominant-baseline: central;
  text-anchor: middle;
}</style></svg>