<svg width="634.1010620117187px" height="120.8px" xmlns="http://www.w3.org/2000/svg" viewBox="-67.05053100585934 14.600000000000001 634.1010620117187 120.8" style="background: none;" preserveAspectRatio="xMidYMid"><defs><linearGradient id="editing-glowing-gradient" x1="0.3454915028125264" x2="0.6545084971874736" y1="0.9755282581475768" y2="0.02447174185242318"><stop offset="0" stop-color="#2c312b"></stop><stop offset="1" stop-color="#3b0f96"></stop></linearGradient><filter id="editing-glowing" x="-100%" y="-100%" width="300%" height="300%"><feGaussianBlur in="SourceGraphic" result="blur" stdDeviation="3.5"></feGaussianBlur><feMerge><feMergeNode in="blur"></feMergeNode><feMergeNode in="SourceGraphic"></feMergeNode></feMerge></filter></defs><g filter="url(#editing-glowing)"><g transform="translate(24.362871915102005, 99.00000190734863)"><path d="M26.11-42.69L26.11-42.69L26.11-42.69Q41.79-42.69 41.79-31.62L41.79-31.62L41.79-31.62Q41.79-25.54 37.89-21.89L37.89-21.89L37.89-21.89Q34.05-18.24 27.33-18.24L27.33-18.24L27.33-18.24Q24.19-18.24 21.76-20.03L21.76-20.03L21.76-20.03Q20.61-20.80 19.84-21.82L19.84-21.82L19.84-21.82Q24.51-21.82 26.98-24.67L26.98-24.67L26.98-24.67Q29.44-27.52 29.44-33.09L29.44-33.09L29.44-33.09Q29.44-38.66 23.94-38.66L23.94-38.66L22.40-38.66L22.40-38.66Q22.02-38.66 21.70-38.59L21.70-38.59L14.34 0L0.45 0L8.32-41.92L8.32-41.92Q15.17-42.56 19.14-42.62L19.14-42.62L19.14-42.62Q23.10-42.69 26.11-42.69ZM74.30-7.10L74.30-7.10L74.30-7.10Q74.30-4.29 77.18-3.46L77.18-3.46L77.18-3.46Q76.48-1.09 73.73 0.19L73.73 0.19L73.73 0.19Q71.42 1.28 68.90 1.28L68.90 1.28L68.90 1.28Q66.37 1.28 65.06 0.61L65.06 0.61L65.06 0.61Q63.74-0.06 63.04-1.15L63.04-1.15L63.04-1.15Q61.89-2.82 61.89-5.95L61.89-5.95L61.89-5.95Q61.89-7.81 62.91-12.93L62.91-12.93L63.81-17.79L63.81-17.79Q64.90-23.36 64.90-25.41L64.90-25.41L64.90-25.41Q64.90-28.99 62.91-28.99L62.91-28.99L62.91-28.99Q60.42-28.99 58.82-25.34L58.82-25.34L58.82-25.34Q58.18-23.94 57.73-21.82L57.73-21.82L53.38 0L40.51 1.28L49.54-44.80L62.40-46.08L61.89-43.52L61.89-43.52Q60.10-33.66 58.56-30.34L58.56-30.34L58.56-30.34Q62.14-33.92 68.74-33.92L68.74-33.92L68.74-33.92Q75.71-33.92 76.99-29.31L76.99-29.31L76.99-29.31Q77.44-27.84 77.44-26.56L77.44-26.56L77.44-26.56Q77.44-25.28 77.34-24.29L77.34-24.29L77.34-24.29Q77.25-23.30 76.93-21.50L76.93-21.50L76.10-16.90L74.62-9.66L74.62-9.66Q74.30-8.19 74.30-7.10ZM85.15-1.92L85.15-1.92L85.15-1.92Q83.65-3.58 82.98-6.21L82.98-6.21L82.98-6.21Q82.30-8.83 82.30-13.12L82.30-13.12L82.30-13.12Q82.30-17.41 83.78-21.31L83.78-21.31L83.78-21.31Q85.25-25.22 87.94-28.03L87.94-28.03L87.94-28.03Q93.44-33.92 102.53-33.92L102.53-33.92L102.53-33.92Q105.79-33.92 108.16-32.83L108.16-32.83L119.10-33.92L114.37-8.96L114.37-8.96Q114.18-8.19 114.18-6.78L114.18-6.78L114.18-6.78Q114.18-5.38 115.04-4.48L115.04-4.48L115.04-4.48Q115.90-3.58 117.18-3.46L117.18-3.46L117.18-3.46Q116.54-1.28 114.21 0L114.21 0L114.21 0Q111.87 1.28 109.25 1.28L109.25 1.28L109.25 1.28Q106.62 1.28 104.86 0.29L104.86 0.29L104.86 0.29Q103.10-0.70 102.59-2.37L102.59-2.37L102.59-2.37Q101.57-0.77 99.39 0.26L99.39 0.26L99.39 0.26Q97.22 1.28 94.30 1.28L94.30 1.28L94.30 1.28Q91.39 1.28 89.02 0.51L89.02 0.51L89.02 0.51Q86.66-0.26 85.15-1.92ZM98.66-27.90L98.66-27.90L98.66-27.90Q97.92-26.75 97.28-24.80L97.28-24.80L97.28-24.80Q96.64-22.85 95.58-17.63L95.58-17.63L95.58-17.63Q94.53-12.42 94.53-8.70L94.53-8.70L94.53-8.70Q94.53-4.99 95.10-3.90L95.10-3.90L95.10-3.90Q95.68-2.82 96.70-2.82L96.70-2.82L96.70-2.82Q98.75-2.82 100.26-4.77L100.26-4.77L100.26-4.77Q101.76-6.72 102.34-10.18L102.34-10.18L105.73-28.93L105.73-28.93Q104.38-30.08 102.82-30.08L102.82-30.08L102.82-30.08Q101.25-30.08 100.32-29.57L100.32-29.57L100.32-29.57Q99.39-29.06 98.66-27.90ZM168.64 1.28L168.64 1.28L168.64 1.28Q160.90 1.28 160.90-4.74L160.90-4.74L160.90-4.74Q160.90-7.36 162.02-12.45L162.02-12.45L162.02-12.45Q163.14-17.54 163.52-19.58L163.52-19.58L163.52-19.58Q164.42-24.26 164.42-25.73L164.42-25.73L164.42-25.73Q164.42-28.99 161.98-28.99L161.98-28.99L161.98-28.99Q160.38-28.99 158.85-26.78L158.85-26.78L158.85-26.78Q157.31-24.58 156.61-20.16L156.61-20.16L152.64 0L140.16 1.28L143.62-16.13L143.62-16.13Q144.19-19.01 144.70-22.27L144.70-22.27L144.70-22.27Q145.22-25.54 145.22-26.05L145.22-26.05L145.22-26.05Q145.22-28.99 143.04-28.99L143.04-28.99L143.04-28.99Q141.57-28.99 139.97-26.82L139.97-26.82L139.97-26.82Q138.37-24.64 137.47-20.16L137.47-20.16L133.57 0L120.96 1.28L127.68-32.64L138.11-33.92L137.02-27.46L137.02-27.46Q138.69-30.91 141.76-32.42L141.76-32.42L141.76-32.42Q144.83-33.92 149.63-33.92L149.63-33.92L149.63-33.92Q152.38-33.92 154.18-32.58L154.18-32.58L154.18-32.58Q155.97-31.23 156.54-29.06L156.54-29.06L156.54-29.06Q157.63-31.30 160.42-32.61L160.42-32.61L160.42-32.61Q163.20-33.92 166.62-33.92L166.62-33.92L166.62-33.92Q170.05-33.92 171.74-33.18L171.74-33.18L171.74-33.18Q173.44-32.45 174.46-31.23L174.46-31.23L174.46-31.23Q176.19-28.99 176.19-24.90L176.19-24.90L176.19-24.90Q176.19-20.86 174.46-12.48L174.46-12.48L174.46-12.48Q173.57-8.38 173.57-6.88L173.57-6.88L173.57-6.88Q173.57-5.38 174.43-4.48L174.43-4.48L174.43-4.48Q175.30-3.58 176.58-3.46L176.58-3.46L176.58-3.46Q175.94-1.28 173.73 0L173.73 0L173.73 0Q171.52 1.28 168.64 1.28ZM200.13 0L192.77 0L204.35-42.24L217.73-42.24L220.67-18.11L232.58-42.24L243.78-42.24L244.93-10.62L244.93-10.62Q245.18-4.35 248.26-2.43L248.26-2.43L248.26-2.43Q247.55-1.15 245.50 0.06L245.50 0.06L245.50 0.06Q243.46 1.28 240.74 1.28L240.74 1.28L240.74 1.28Q238.02 1.28 236.42 0.51L236.42 0.51L236.42 0.51Q234.82-0.26 233.92-1.54L233.92-1.54L233.92-1.54Q232.32-3.84 232.32-8.26L232.32-8.26L232.32-28.03L219.71 0L211.78 0L207.30-28.74L200.13 0ZM266.37-3.52L266.37-3.52L266.37-3.52Q264.38 1.28 258.05 1.28L258.05 1.28L258.05 1.28Q254.78 1.28 252.74-0.96L252.74-0.96L252.74-0.96Q251.01-2.94 251.01-4.93L251.01-4.93L251.01-4.93Q251.01-10.11 253.38-20.22L253.38-20.22L255.74-32.64L268.74-33.92L264.83-13.70L264.83-13.70Q263.74-8.96 263.74-7.30L263.74-7.30L263.74-7.30Q263.74-3.65 266.37-3.52ZM256.90-41.54L256.90-41.54L256.90-41.54Q256.90-44.03 258.98-45.38L258.98-45.38L258.98-45.38Q261.06-46.72 264.06-46.72L264.06-46.72L264.06-46.72Q267.07-46.72 268.90-45.38L268.90-45.38L268.90-45.38Q270.72-44.03 270.72-41.54L270.72-41.54L270.72-41.54Q270.72-39.04 268.70-37.76L268.70-37.76L268.70-37.76Q266.69-36.48 263.68-36.48L263.68-36.48L263.68-36.48Q260.67-36.48 258.78-37.76L258.78-37.76L258.78-37.76Q256.90-39.04 256.90-41.54ZM298.88 1.28L298.88 1.28L298.88 1.28Q291.14 1.28 291.14-4.74L291.14-4.74L291.14-4.74Q291.20-6.40 291.71-9.22L291.71-9.22L292.86-15.10L292.86-15.10Q294.59-23.42 294.59-25.28L294.59-25.28L294.59-25.28Q294.59-28.99 292.42-28.99L292.42-28.99L292.42-28.99Q288.77-28.99 286.85-19.46L286.85-19.46L283.07 0L270.21 1.28L276.86-32.70L287.36-33.92L286.34-27.65L286.34-27.65Q289.34-33.92 298.56-33.92L298.56-33.92L298.56-33.92Q303.04-33.92 304.93-32.03L304.93-32.03L304.93-32.03Q306.82-30.14 306.82-25.92L306.82-25.92L306.82-25.92Q306.82-21.95 304.77-12.67L304.77-12.67L304.77-12.67Q303.81-8.51 303.81-6.94L303.81-6.94L303.81-6.94Q303.81-5.38 304.67-4.48L304.67-4.48L304.67-4.48Q305.54-3.58 306.82-3.46L306.82-3.46L306.82-3.46Q306.18-1.28 303.97 0L303.97 0L303.97 0Q301.76 1.28 298.88 1.28ZM344.13-7.10L344.13-7.10L344.13-7.10Q344.13-4.29 347.01-3.46L347.01-3.46L347.01-3.46Q346.30-1.09 343.55 0.19L343.55 0.19L343.55 0.19Q341.25 1.28 338.72 1.28L338.72 1.28L338.72 1.28Q336.19 1.28 334.88 0.61L334.88 0.61L334.88 0.61Q333.57-0.06 332.86-1.15L332.86-1.15L332.86-1.15Q331.71-2.82 331.71-5.95L331.71-5.95L331.71-5.95Q331.71-7.81 332.74-12.93L332.74-12.93L333.63-17.79L333.63-17.79Q334.72-23.36 334.72-25.41L334.72-25.41L334.72-25.41Q334.72-28.99 332.74-28.99L332.74-28.99L332.74-28.99Q330.24-28.99 328.64-25.34L328.64-25.34L328.64-25.34Q328.00-23.94 327.55-21.82L327.55-21.82L323.20 0L310.34 1.28L319.36-44.80L332.22-46.08L331.71-43.52L331.71-43.52Q329.92-33.66 328.38-30.34L328.38-30.34L328.38-30.34Q331.97-33.92 338.56-33.92L338.56-33.92L338.56-33.92Q345.54-33.92 346.82-29.31L346.82-29.31L346.82-29.31Q347.26-27.84 347.26-26.56L347.26-26.56L347.26-26.56Q347.26-25.28 347.17-24.29L347.17-24.29L347.17-24.29Q347.07-23.30 346.75-21.50L346.75-21.50L345.92-16.90L344.45-9.66L344.45-9.66Q344.13-8.19 344.13-7.10ZM370.50-31.17L370.50-31.17L370.50-31.17Q368.32-32.83 368.32-36.38L368.32-36.38L368.32-36.38Q368.32-39.94 370.66-41.79L370.66-41.79L370.66-41.79Q372.99-43.65 377.02-43.65L377.02-43.65L377.02-43.65Q379.58-43.65 385.66-42.75L385.66-42.75L390.02-42.11L390.02-42.11Q392.19-41.86 394.46-41.86L394.46-41.86L394.46-41.86Q396.74-41.86 398.27-42.82L398.27-42.82L398.27-42.82Q400.58-40.77 400.58-37.82L400.58-37.82L400.58-37.82Q400.58-34.88 397.95-32.77L397.95-32.77L397.95-32.77Q395.26-30.53 391.81-30.53L391.81-30.53L391.81-30.53Q390.14-30.53 387.46-30.98L387.46-30.98L387.46-30.98Q384.32-21.12 384.32-14.27L384.32-14.27L384.32-14.27Q384.32-7.42 387.78-3.84L387.78-3.84L387.78-3.84Q386.18-0.96 383.81 0.16L383.81 0.16L383.81 0.16Q381.44 1.28 377.89 1.28L377.89 1.28L377.89 1.28Q374.34 1.28 372.13-0.67L372.13-0.67L372.13-0.67Q369.92-2.62 369.92-6.66L369.92-6.66L369.92-6.66Q369.92-11.33 372.48-19.01L372.48-19.01L372.48-19.01Q375.04-26.62 378.88-32.45L378.88-32.45L378.88-32.45Q377.02-32.64 375.10-32.64L375.10-32.64L375.10-32.64Q371.14-32.64 370.50-31.17ZM418.18-17.98L418.18-17.98L418.18-17.98Q420.48-22.08 420.48-26.24L420.48-26.24L420.48-26.24Q420.48-28.99 418.50-28.99L418.50-28.99L418.50-28.99Q416.96-28.99 415.36-26.37L415.36-26.37L415.36-26.37Q413.70-23.74 413.18-20.35L413.18-20.35L409.86 0L396.61 1.28L403.14-32.64L413.70-33.92L412.54-27.46L412.54-27.46Q415.68-33.92 422.72-33.92L422.72-33.92L422.72-33.92Q426.43-33.92 428.45-32L428.45-32L428.45-32Q430.46-30.08 430.46-26.14L430.46-26.14L430.46-26.14Q430.46-22.21 427.87-19.71L427.87-19.71L427.87-19.71Q425.28-17.22 420.86-17.22L420.86-17.22L420.86-17.22Q418.94-17.22 418.18-17.98ZM446.85-3.52L446.85-3.52L446.85-3.52Q444.86 1.28 438.53 1.28L438.53 1.28L438.53 1.28Q435.26 1.28 433.22-0.96L433.22-0.96L433.22-0.96Q431.49-2.94 431.49-4.93L431.49-4.93L431.49-4.93Q431.49-10.11 433.86-20.22L433.86-20.22L436.22-32.64L449.22-33.92L445.31-13.70L445.31-13.70Q444.22-8.96 444.22-7.30L444.22-7.30L444.22-7.30Q444.22-3.65 446.85-3.52ZM437.38-41.54L437.38-41.54L437.38-41.54Q437.38-44.03 439.46-45.38L439.46-45.38L439.46-45.38Q441.54-46.72 444.54-46.72L444.54-46.72L444.54-46.72Q447.55-46.72 449.38-45.38L449.38-45.38L449.38-45.38Q451.20-44.03 451.20-41.54L451.20-41.54L451.20-41.54Q451.20-39.04 449.18-37.76L449.18-37.76L449.18-37.76Q447.17-36.48 444.16-36.48L444.16-36.48L444.16-36.48Q441.15-36.48 439.26-37.76L439.26-37.76L439.26-37.76Q437.38-39.04 437.38-41.54Z" fill="url(#editing-glowing-gradient)"></path></g></g><style>text {
  font-size: 64px;
  font-family: Arial Black;
  dominant-baseline: central;
  text-anchor: middle;
}</style></svg>